# xmcd
#
# Track frame offsets: 
#        150
#        18467
#        32575
#        45006
#        55636
#        69004
#        83451
#        97685
#        112011
#        125064
#        139264
#        153544
#        169215
#        182742
#        197540
#        213523
#        229594
#        241606
#
# Disc length: 3402 seconds
#
# Revision: 0
# Processed by: cddbd v1.5.2PL0 Copyright (c) Steve Scherf et al.
# Submitted via: ExactAudioCopy v0.99pb4
#
DISCID=d90d4812
DTITLE=John Lee Hooker - Boogie Chillun
DYEAR=2000
DGENRE=Blues
TTITLE0=Roll Over Me
TTITLE1=Sally Mae
TTITLE2=Highway Blues
TTITLE3=See See Baby
TTITLE4=Wednesday Evening Blues
TTITLE5=Crazy 'Bout That Woman
TTITLE6=Boogie Chillun
TTITLE7=Henry 's Swing Club
TTITLE8=John Lee's Original Boogie
TTITLE9=Stomp Boogie
TTITLE10=Who's Been Jiving You
TTITLE11=Black Man Blues
TTITLE12=Poor Joe
TTITLE13=Mercy Blues
TTITLE14=Boogie Woogie
TTITLE15=Good Business
TTITLE16=Poor Slim
TTITLE17=Shake Your Boogie
EXTD=
EXTT0=
EXTT1=
EXTT2=
EXTT3=
EXTT4=
EXTT5=
EXTT6=
EXTT7=
EXTT8=
EXTT9=
EXTT10=
EXTT11=
EXTT12=
EXTT13=
EXTT14=
EXTT15=
EXTT16=
EXTT17=
PLAYORDER=
